<?xml version="1.0" encoding="UTF-8" standalone="no"?>
<svg
   height="24px"
   viewBox="0 -960 960 960"
   width="24px"
   fill="#e3e3e3"
   version="1.1"
   id="svg1"
   sodipodi:docname="1.svg"
   xml:space="preserve"
   inkscape:version="1.3.2 (091e20e, 2023-11-25)"
   xmlns:inkscape="http://www.inkscape.org/namespaces/inkscape"
   xmlns:sodipodi="http://sodipodi.sourceforge.net/DTD/sodipodi-0.dtd"
   xmlns="http://www.w3.org/2000/svg"
   xmlns:svg="http://www.w3.org/2000/svg"><defs
     id="defs1" /><sodipodi:namedview
     id="namedview1"
     pagecolor="#ffffff"
     bordercolor="#000000"
     borderopacity="0.25"
     inkscape:showpageshadow="2"
     inkscape:pageopacity="0.0"
     inkscape:pagecheckerboard="0"
     inkscape:deskcolor="#d1d1d1"
     inkscape:zoom="10.357969"
     inkscape:cx="20.467333"
     inkscape:cy="7.5304338"
     inkscape:window-width="1440"
     inkscape:window-height="819"
     inkscape:window-x="0"
     inkscape:window-y="38"
     inkscape:window-maximized="0"
     inkscape:current-layer="svg1" /><path
     d="M580-240q-42 0-71-29t-29-71q0-42 29-71t71-29q42 0 71 29t29 71q0 42-29 71t-71 29ZM200-80q-33 0-56.5-23.5T120-160v-560q0-33 23.5-56.5T200-800h40v-80h80v80h320v-80h80v80h40q33 0 56.5 23.5T840-720v560q0 33-23.5 56.5T760-80H200Zm0-80h560v-400H200v400Zm0-480h560v-80H200v80Zm0 0v-80 80Z"
     id="path1"
     style="fill:#b3b3b3" /><rect
     style="fill:#ffffff;stroke-width:74.986;stroke-linecap:round;stroke-linejoin:round"
     id="rect1"
     width="294.4559"
     height="241.69212"
     x="422.11023"
     y="-468.10547" /><g
     style="fill:#ff0000"
     id="g2"
     transform="matrix(0.35516566,0,0,0.36471483,397.50838,-169.37347)"><path
       d="m 480,-120 -58,-52 Q 321,-263 255,-329 189,-395 150,-447.5 111,-500 95.5,-544 80,-588 80,-634 q 0,-94 63,-157 63,-63 157,-63 52,0 99,22 47,22 81,62 34,-40 81,-62 47,-22 99,-22 94,0 157,63 63,63 63,157 0,46 -15.5,90 -15.5,44 -54.5,96.5 -39,52.5 -105,118.5 -66,66 -167,157 z m 0,-108 q 96,-86 158,-147.5 62,-61.5 98,-107 36,-45.5 50,-81 14,-35.5 14,-70.5 0,-60 -40,-100 -40,-40 -100,-40 -47,0 -87,26.5 -40,26.5 -55,67.5 h -76 q -15,-41 -55,-67.5 -40,-26.5 -87,-26.5 -60,0 -100,40 -40,40 -40,100 0,35 14,70.5 14,35.5 50,81 36,45.5 98,107 62,61.5 158,147.5 z m 0,-273 z"
       id="path1-7"
       style="fill:#ff0000" /></g></svg>
