<?xml version="1.0" encoding="UTF-8" standalone="no"?>
<svg
   height="24px"
   viewBox="0 -960 960 960"
   width="24px"
   fill="#e3e3e3"
   version="1.1"
   id="svg1"
   sodipodi:docname="2.svg"
   inkscape:version="1.3.2 (091e20e, 2023-11-25)"
   xmlns:inkscape="http://www.inkscape.org/namespaces/inkscape"
   xmlns:sodipodi="http://sodipodi.sourceforge.net/DTD/sodipodi-0.dtd"
   xmlns="http://www.w3.org/2000/svg"
   xmlns:svg="http://www.w3.org/2000/svg">
  <defs
     id="defs1" />
  <sodipodi:namedview
     id="namedview1"
     pagecolor="#ffffff"
     bordercolor="#000000"
     borderopacity="0.25"
     inkscape:showpageshadow="2"
     inkscape:pageopacity="0.0"
     inkscape:pagecheckerboard="0"
     inkscape:deskcolor="#d1d1d1"
     inkscape:zoom="9.8333333"
     inkscape:cx="12"
     inkscape:cy="12"
     inkscape:window-width="1440"
     inkscape:window-height="449"
     inkscape:window-x="0"
     inkscape:window-y="38"
     inkscape:window-maximized="0"
     inkscape:current-layer="svg1" />
  <path
     d="m240-522-40 22q-14 8-30 4t-24-18L66-654q-8-14-4-30t18-24l230-132h70q9 0 14.5 5.5T400-820v20q0 33 23.5 56.5T480-720q33 0 56.5-23.5T560-800v-20q0-9 5.5-14.5T580-840h70l230 132q14 8 18 24t-4 30l-80 140q-8 14-23.5 17.5T760-501l-40-20v361q0 17-11.5 28.5T680-120H280q-17 0-28.5-11.5T240-160v-362Zm80-134v456h320v-456l124 68 42-70-172-100q-15 51-56.5 84.5T480-640q-56 0-97.5-33.5T326-758L154-658l42 70 124-68Zm160 177Z"
     id="path1"
     style="fill:#b3b3b3" />
</svg>
