<?xml version="1.0" encoding="UTF-8" standalone="no"?>
<svg
   height="24px"
   viewBox="0 -960 960 960"
   width="24px"
   fill="#e3e3e3"
   version="1.1"
   id="svg1"
   sodipodi:docname="3.svg"
   inkscape:version="1.3.2 (091e20e, 2023-11-25)"
   xmlns:inkscape="http://www.inkscape.org/namespaces/inkscape"
   xmlns:sodipodi="http://sodipodi.sourceforge.net/DTD/sodipodi-0.dtd"
   xmlns="http://www.w3.org/2000/svg"
   xmlns:svg="http://www.w3.org/2000/svg">
  <defs
     id="defs1" />
  <sodipodi:namedview
     id="namedview1"
     pagecolor="#ffffff"
     bordercolor="#000000"
     borderopacity="0.25"
     inkscape:showpageshadow="2"
     inkscape:pageopacity="0.0"
     inkscape:pagecheckerboard="0"
     inkscape:deskcolor="#d1d1d1"
     inkscape:zoom="9.8333333"
     inkscape:cx="12"
     inkscape:cy="12"
     inkscape:window-width="1440"
     inkscape:window-height="449"
     inkscape:window-x="0"
     inkscape:window-y="38"
     inkscape:window-maximized="0"
     inkscape:current-layer="svg1" />
  <path
     d="M480-240q80 0 152-30t128-86l-42-42q-11 11-21.5 19.5T674-362l-34-58v-100h40v-40H456l-70-120H240l40 30-60 70 38 40 62-40v160l-34 58q-12-8-22.5-16.5T242-398l-42 42q56 56 128 86t152 30Zm0-60q-38 0-73.5-7.5T338-332l34-58q26 10 53.5 14.5T480-371q28 0 55-4.5t53-14.5l34 58q-33 15-68.5 23.5T480-300ZM160-80q-33 0-56.5-23.5T80-160v-640q0-33 23.5-56.5T160-880h640q33 0 56.5 23.5T880-800v640q0 33-23.5 56.5T800-80H160Zm0-80h640v-640H160v640Zm0 0v-640 640Z"
     id="path1"
     style="fill:#b3b3b3" />
</svg>
