<?xml version="1.0" encoding="UTF-8" standalone="no"?>
<svg
   height="24px"
   viewBox="0 -960 960 960"
   width="24px"
   fill="#e3e3e3"
   version="1.1"
   id="svg1"
   sodipodi:docname="4.svg"
   inkscape:version="1.3.2 (091e20e, 2023-11-25)"
   xmlns:inkscape="http://www.inkscape.org/namespaces/inkscape"
   xmlns:sodipodi="http://sodipodi.sourceforge.net/DTD/sodipodi-0.dtd"
   xmlns="http://www.w3.org/2000/svg"
   xmlns:svg="http://www.w3.org/2000/svg">
  <defs
     id="defs1" />
  <sodipodi:namedview
     id="namedview1"
     pagecolor="#ffffff"
     bordercolor="#000000"
     borderopacity="0.25"
     inkscape:showpageshadow="2"
     inkscape:pageopacity="0.0"
     inkscape:pagecheckerboard="0"
     inkscape:deskcolor="#d1d1d1"
     inkscape:zoom="9.8333333"
     inkscape:cx="12"
     inkscape:cy="12"
     inkscape:window-width="1440"
     inkscape:window-height="449"
     inkscape:window-x="0"
     inkscape:window-y="38"
     inkscape:window-maximized="0"
     inkscape:current-layer="svg1" />
  <path
     d="M160-80q-17 0-28.5-11.5T120-120v-200q0-33 23.5-56.5T200-400v-160q0-33 23.5-56.5T280-640h160v-58q-18-12-29-29t-11-41q0-15 6-29.5t18-26.5l56-56 56 56q12 12 18 26.5t6 29.5q0 24-11 41t-29 29v58h160q33 0 56.5 23.5T760-560v160q33 0 56.5 23.5T840-320v200q0 17-11.5 28.5T800-80H160Zm120-320h400v-160H280v160Zm-80 240h560v-160H200v160Zm80-240h400-400Zm-80 240h560-560Zm560-240H200h560Z"
     id="path1"
     style="fill:#b3b3b3" />
</svg>
