<?xml version="1.0" encoding="UTF-8" standalone="no"?>
<svg
   height="24px"
   viewBox="0 -960 960 960"
   width="24px"
   fill="#1f1f1f"
   version="1.1"
   id="svg1"
   sodipodi:docname="7.svg"
   inkscape:version="1.3.2 (091e20e, 2023-11-25)"
   xmlns:inkscape="http://www.inkscape.org/namespaces/inkscape"
   xmlns:sodipodi="http://sodipodi.sourceforge.net/DTD/sodipodi-0.dtd"
   xmlns="http://www.w3.org/2000/svg"
   xmlns:svg="http://www.w3.org/2000/svg">
  <defs
     id="defs1" />
  <sodipodi:namedview
     id="namedview1"
     pagecolor="#ffffff"
     bordercolor="#000000"
     borderopacity="0.25"
     inkscape:showpageshadow="2"
     inkscape:pageopacity="0.0"
     inkscape:pagecheckerboard="0"
     inkscape:deskcolor="#d1d1d1"
     inkscape:zoom="9.8333333"
     inkscape:cx="11.949153"
     inkscape:cy="11.949153"
     inkscape:window-width="1440"
     inkscape:window-height="780"
     inkscape:window-x="48"
     inkscape:window-y="40"
     inkscape:window-maximized="0"
     inkscape:current-layer="svg1" />
  <path
     d="M160-80v-440H80v-240h208q-5-9-6.5-19t-1.5-21q0-50 35-85t85-35q23 0 43 8.5t37 23.5q17-16 37-24t43-8q50 0 85 35t35 85q0 11-2 20.5t-6 19.5h208v240h-80v440H160Zm400-760q-17 0-28.5 11.5T520-800q0 17 11.5 28.5T560-760q17 0 28.5-11.5T600-800q0-17-11.5-28.5T560-840Zm-200 40q0 17 11.5 28.5T400-760q17 0 28.5-11.5T440-800q0-17-11.5-28.5T400-840q-17 0-28.5 11.5T360-800ZM160-680v80h280v-80H160Zm280 520v-360H240v360h200Zm80 0h200v-360H520v360Zm280-440v-80H520v80h280Z"
     id="path1"
     style="fill:#b3b3b3;fill-opacity:1" />
</svg>
